<svg xmlns="http://www.w3.org/2000/svg" xmlns:xlink="http://www.w3.org/1999/xlink" version="1.1" x="0px" y="0px" viewBox="0 0 48 48" enable-background="new 0 0 48 48" xml:space="preserve"><path d="M14.4,7.3c-0.2,0-0.4,0.2-0.4,0.5v8.3v18.6c0,0.3-0.2,0.5-0.5,0.5c-1.7,0-3.8,0.6-5.7,1.7  c-4.1,2.4-6.2,6.3-4.7,8.7c1.4,2.5,5.9,2.6,9.9,0.2c3.2-1.8,5.2-4.6,5.2-7h0V15.5c0-0.2,0.1-0.4,0.4-0.5l21.9-4.9  c0.3-0.1,0.6,0.2,0.6,0.5v17.1c0,0.3-0.2,0.5-0.5,0.5c-1.7,0-3.8,0.6-5.7,1.7c-4.1,2.4-6.2,6.3-4.7,8.7c1.4,2.5,5.9,2.6,9.9,0.2  c3.2-1.8,5.2-4.6,5.2-7h0V9V1c0-0.3-0.3-0.5-0.6-0.5L14.4,7.3z"/></svg>
