<svg xmlns="http://www.w3.org/2000/svg" xmlns:xlink="http://www.w3.org/1999/xlink" version="1.1" x="0px" y="0px" viewBox="0 0 100 100" enable-background="new 0 0 100 100" xml:space="preserve"><g><path d="M56.261,36.218V8.045c-3.516-3.516-9.213-3.516-12.728,0L13.567,38.01h-2.681c-3.083,0-5.582,2.5-5.582,5.582v12.816   c0,3.082,2.499,5.58,5.582,5.58h2.68l29.966,29.967c3.515,3.516,9.212,3.516,12.728,0V63.783c4.098-3.203,6.742-8.179,6.742-13.781   C63.003,44.398,60.358,39.421,56.261,36.218z"/><path d="M82.154,49.994c0-0.032-0.004-0.063-0.004-0.096c0-0.024,0.003-0.047,0.003-0.071c-0.002-11.753-7.17-21.709-18.705-25.984   c-0.326-0.121-0.635-0.182-0.918-0.182c-1.113,0-1.797,1.024-1.979,2.04c-0.032,0.182-0.044,0.376-0.045,0.574   c-0.056,1.056,0.373,2.302,1.801,2.83c9.123,3.383,14.8,11.346,14.839,20.798c-0.026,9.458-5.702,17.432-14.827,20.818   c-1.431,0.532-1.859,1.784-1.801,2.843c0.001,0.196,0.014,0.39,0.046,0.57c0.182,1.012,0.862,2.034,1.973,2.034   c0.283,0,0.593-0.062,0.919-0.183C74.991,71.706,82.156,61.747,82.154,49.994z"/><path d="M67.929,12.755c-0.326-0.121-0.635-0.182-0.918-0.182c-1.114,0-1.797,1.023-1.979,2.038   c-0.201,1.12,0.139,2.641,1.756,3.24c14.124,5.233,22.9,17.55,22.904,32.144c0.004,14.593-8.766,26.913-22.885,32.152   c-1.615,0.601-1.954,2.121-1.754,3.24c0.183,1.016,0.863,2.039,1.976,2.039c0.283,0,0.592-0.062,0.918-0.184   c16.505-6.126,26.754-20.4,26.748-37.256C94.69,33.138,84.433,18.87,67.929,12.755z"/></g></svg>
