<svg xmlns="http://www.w3.org/2000/svg" xmlns:xlink="http://www.w3.org/1999/xlink" version="1.1" x="0px" y="0px" viewBox="0 0 29 29" xml:space="preserve"><g transform="translate(-150 -260)"><g xmlns="http://www.w3.org/2000/svg" xmlns:xlink="http://www.w3.org/1999/xlink"><path d="M164.5,286c-6.342,0-11.5-5.158-11.5-11.5c0-5.832,4.367-10.652,10-11.391v-2.022c-6.749,0.747-12,6.464-12,13.412    c0,7.456,6.044,13.5,13.5,13.5c6.949,0,12.666-5.251,13.412-12h-2.021C175.152,281.633,170.332,286,164.5,286z"/><path d="M174,274h-8.092c-0.15-0.424-0.484-0.758-0.908-0.908V265h-1v8.092c-0.581,0.207-1,0.756-1,1.408    c0,0.828,0.672,1.5,1.5,1.5c0.652,0,1.201-0.419,1.408-1H174V274z"/><path d="M169.807,264.309l1.004-1.739c-0.74-0.393-1.521-0.722-2.336-0.973l-0.518,1.936    C168.601,263.736,169.217,264,169.807,264.309z"/><path d="M175.975,274h2c-0.031-0.859-0.138-1.697-0.322-2.508l-1.932,0.518C175.863,272.654,175.945,273.32,175.975,274z"/><path d="M172.258,266.035l1.418-1.418c-0.618-0.574-1.287-1.089-2.004-1.54l-1.002,1.734    C171.236,265.173,171.765,265.584,172.258,266.035z"/><path d="M174.188,268.329l1.735-1.001c-0.451-0.717-0.967-1.387-1.54-2.004l-1.418,1.418    C173.416,267.234,173.826,267.764,174.188,268.329z"/><path d="M166.989,263.279l0.518-1.932c-0.811-0.185-1.648-0.291-2.507-0.322v2C165.68,263.055,166.345,263.137,166.989,263.279z"/><path d="M175.467,271.043l1.936-0.518c-0.251-0.815-0.58-1.596-0.974-2.337l-1.738,1.004    C175,269.782,175.264,270.399,175.467,271.043z"/></g></g></svg>
